<?xml version="1.0" encoding="utf-8"?>
<!-- Generator: Adobe Illustrator 26.2.1, SVG Export Plug-In . SVG Version: 6.00 Build 0)  -->
<svg version="1.1" id="Layer_1" xmlns="http://www.w3.org/2000/svg" xmlns:xlink="http://www.w3.org/1999/xlink" x="0px" y="0px"
	 viewBox="0 0 400 320" style="enable-background:new 0 0 400 320;" xml:space="preserve">
<style type="text/css">
	.st0{clip-path:url(#SVGID_00000016066315571076189330000009124573101890195107_);fill:#38A4B6;}
	
		.st1{clip-path:url(#SVGID_00000016066315571076189330000009124573101890195107_);fill:none;stroke:#F5F4F0;stroke-width:4;stroke-miterlimit:10;stroke-opacity:0.21;}
</style>
<g>
	<defs>
		<rect id="SVGID_1_" width="400" height="320"/>
	</defs>
	<clipPath id="SVGID_00000155865523796511144990000008334173538753036194_">
		<use xlink:href="#SVGID_1_"  style="overflow:visible;"/>
	</clipPath>
	
		<rect style="clip-path:url(#SVGID_00000155865523796511144990000008334173538753036194_);fill:#38A4B6;" width="400" height="320"/>
	
		<path style="clip-path:url(#SVGID_00000155865523796511144990000008334173538753036194_);fill:none;stroke:#F5F4F0;stroke-width:4;stroke-miterlimit:10;stroke-opacity:0.21;" d="
		M-180.5-23.2c43.6,23.5,23.1,56.7,66.6,80.2c43.6,23.5,64.1-9.7,107.6,13.9c43.6,23.5,23.1,56.7,66.6,80.2
		c43.6,23.5,64.1-9.7,107.6,13.9c43.6,23.5,23.1,56.7,66.6,80.2c43.6,23.5,64.1-9.7,107.6,13.9c43.6,23.5,23.1,56.7,66.7,80.2
		c43.6,23.5,64.1-9.7,107.6,13.9c43.6,23.5,23.1,56.7,66.7,80.2"/>
	
		<path style="clip-path:url(#SVGID_00000155865523796511144990000008334173538753036194_);fill:none;stroke:#F5F4F0;stroke-width:4;stroke-miterlimit:10;stroke-opacity:0.21;" d="
		M-497.5-53.1c43.6,23.5,23.1,56.7,66.6,80.2c43.6,23.5,64.1-9.7,107.6,13.9c43.6,23.5,23.1,56.7,66.6,80.2
		c43.6,23.5,64.1-9.7,107.6,13.9c43.6,23.5,23.1,56.7,66.6,80.2s64.1-9.7,107.6,13.9s23.1,56.7,66.7,80.2
		c43.6,23.5,64.1-9.7,107.6,13.9c43.6,23.5,23.1,56.7,66.7,80.2"/>
	
		<path style="clip-path:url(#SVGID_00000155865523796511144990000008334173538753036194_);fill:none;stroke:#F5F4F0;stroke-width:4;stroke-miterlimit:10;stroke-opacity:0.21;" d="
		M-130.5-44.7c43.6,23.5,23.1,56.7,66.6,80.2C-20.3,59,0.2,25.8,43.8,49.3s23.1,56.7,66.6,80.2c43.6,23.5,64.1-9.7,107.6,13.9
		c43.6,23.5,23.1,56.7,66.6,80.2s64.1-9.7,107.6,13.9c43.6,23.5,23.1,56.7,66.7,80.2s64.1-9.7,107.6,13.9
		c43.6,23.5,23.1,56.7,66.7,80.2"/>
	
		<path style="clip-path:url(#SVGID_00000155865523796511144990000008334173538753036194_);fill:none;stroke:#F5F4F0;stroke-width:4;stroke-miterlimit:10;stroke-opacity:0.21;" d="
		M-80.5-66.2C-36.9-42.7-57.4-9.5-13.9,14C29.7,37.5,50.2,4.3,93.7,27.9c43.6,23.5,23.1,56.7,66.6,80.2
		c43.6,23.5,64.1-9.7,107.6,13.9c43.6,23.5,23.1,56.7,66.6,80.2s64.1-9.7,107.6,13.9c43.6,23.5,23.1,56.7,66.7,80.2
		s64.1-9.7,107.6,13.9c43.6,23.5,23.1,56.7,66.7,80.2"/>
</g>
</svg>
